<svg xmlns="http://www.w3.org/2000/svg" width="256" height="256" viewBox="0 0 100 100">
    <rect width="100" height="100" rx="20" fill="#7d6ee7"></rect>
    <path fill="#fff" d="M10.40 22.64L40.28 22.64Q40.55 23.09 40.82 23.86Q41.09 24.62 41.09 25.52L41.09 25.52Q41.09 27.05 40.37 27.95Q39.65 28.85 38.30 28.85L38.30 28.85L13.82 28.85L13.82 47.57L37.13 47.57Q37.40 48.02 37.67 48.78Q37.94 49.55 37.94 50.45L37.94 50.45Q37.94 51.98 37.22 52.88Q36.50 53.78 35.15 53.78L35.15 53.78L13.82 53.78L13.82 77.27Q13.37 77.45 12.43 77.63Q11.48 77.81 10.49 77.81L10.49 77.81Q6.44 77.81 6.44 74.57L6.44 74.57L6.44 26.60Q6.44 24.80 7.52 23.72Q8.60 22.64 10.40 22.64L10.40 22.64ZM91.40 36.41L91.40 36.41Q91.40 40.28 89.56 43.56Q87.71 46.85 83.39 48.65L83.39 48.65Q88.52 50.36 91.04 54.00Q93.56 57.65 93.56 62.24L93.56 62.24Q93.56 70.43 87.67 74.39Q81.77 78.35 70.88 78.35L70.88 78.35Q67.10 78.35 63.55 78.03Q59.99 77.72 56.75 76.82L56.75 76.82Q52.97 75.74 52.97 72.68L52.97 72.68L52.97 26.60Q52.97 23.99 55.94 23.18L55.94 23.18Q59.00 22.28 62.42 21.97Q65.84 21.65 69.89 21.65L69.89 21.65Q80.06 21.65 85.73 25.25Q91.40 28.85 91.40 36.41ZM72.41 51.89L60.17 51.89L60.17 71.33Q62.33 71.78 65.17 72.05Q68 72.32 70.88 72.32L70.88 72.32Q78.35 72.32 82.22 69.84Q86.09 67.37 86.09 62.06L86.09 62.06Q86.09 57.38 82.63 54.64Q79.16 51.89 72.41 51.89L72.41 51.89ZM60.17 28.49L60.17 45.95L72.41 45.95Q78.08 45.95 81.01 43.43Q83.93 40.91 83.93 36.59L83.93 36.59Q83.93 27.68 69.89 27.68L69.89 27.68Q66.74 27.68 64.45 27.91Q62.15 28.13 60.17 28.49L60.17 28.49Z"></path>
</svg>